<svg xmlns="http://www.w3.org/2000/svg" width="50" height="50"><path d="M50 50H0V0h50v50zM1 49h48V1H1v48z"/><path d="M12.665 21.445v6.157c0 2.086-2.253 3.04-3.097 3.069-1.026.037-4.068.004-4.068.004v9.722h6.922c2.656 0 4.85-.994 6.581-2.982 1.731-1.987 2.597-4.509 2.597-7.561v-1.299h.03v-7.703c0-1.6.44-2.399 1.32-2.399.47 0 .785.161.947.484.161.323.242.961.242 1.915v19.545h8.937v-19.7c0-1.498.439-2.245 1.321-2.245.47 0 .781.158.936.473.153.315.229.958.229 1.926v19.545H44.5V19.509c0-3.199-.72-5.649-2.158-7.352-1.438-1.703-3.506-2.553-6.205-2.553-1.704 0-3.135.327-4.293.98-1.159.652-2.245 1.741-3.259 3.268-1.657-2.832-4.027-4.248-7.108-4.248-2.597 0-4.71.851-6.339 2.553-1.629 1.702-2.443 3.896-2.443 6.581l-.03 2.707z"/></svg>